<svg xmlns="http://www.w3.org/2000/svg" version="1.1" xmlns:xlink="http://www.w3.org/1999/xlink" xmlns:svgjs="http://svgjs.com/svgjs" width="1440" height="900" preserveAspectRatio="none" viewBox="0 0 1440 900">
    <g mask="url(&quot;#SvgjsMask1274&quot;)" fill="none">
        <rect width="1440" height="900" x="0" y="0" fill="url(#SvgjsLinearGradient1275)"></rect>
        <path d="M0 0L695.17 0L0 285.46z" fill="rgba(255, 255, 255, .1)"></path>
        <path d="M0 285.46L695.17 0L869.2099999999999 0L0 330.71z" fill="rgba(255, 255, 255, .075)"></path>
        <path d="M0 330.71L869.2099999999999 0L914.55 0L0 636.54z" fill="rgba(255, 255, 255, .05)"></path>
        <path d="M0 636.54L914.55 0L1143.46 0L0 743.89z" fill="rgba(255, 255, 255, .025)"></path>
        <path d="M1440 900L1163.1100000000001 900L1440 615.9100000000001z" fill="rgba(0, 0, 0, .1)"></path>
        <path d="M1440 615.9100000000001L1163.1100000000001 900L797.7500000000001 900L1440 565.5600000000001z" fill="rgba(0, 0, 0, .075)"></path>
        <path d="M1440 565.56L797.75 900L396.13 900L1440 386.5999999999999z" fill="rgba(0, 0, 0, .05)"></path>
        <path d="M1440 386.6L396.1300000000001 900L116.0700000000001 900L1440 273.34000000000003z" fill="rgba(0, 0, 0, .025)"></path>
    </g>
    <defs>
        <mask id="SvgjsMask1274">
            <rect width="1440" height="900" fill="#ffffff"></rect>
        </mask>
        <linearGradient x1="9.37%" y1="-15%" x2="90.63%" y2="115%" gradientUnits="userSpaceOnUse" id="SvgjsLinearGradient1275">
            <stop stop-color="#0e2a47" offset="0"></stop>
            <stop stop-color="rgba(181, 64, 135, 1)" offset="1"></stop>
        </linearGradient>
    </defs>
</svg>

<!-- <svg xmlns="http://www.w3.org/2000/svg" version="1.1" xmlns:xlink="http://www.w3.org/1999/xlink" xmlns:svgjs="http://svgjs.com/svgjs" width="1440" height="900" preserveAspectRatio="none" viewBox="0 0 1440 900"><g mask="url(&quot;#SvgjsMask1274&quot;)" fill="none"><rect width="1440" height="900" x="0" y="0" fill="url(#SvgjsLinearGradient1275)"></rect><path d="M0 0L695.17 0L0 285.46z" fill="rgba(255, 255, 255, .1)"></path><path d="M0 285.46L695.17 0L869.2099999999999 0L0 330.71z" fill="rgba(255, 255, 255, .075)"></path><path d="M0 330.71L869.2099999999999 0L914.55 0L0 636.54z" fill="rgba(255, 255, 255, .05)"></path><path d="M0 636.54L914.55 0L1143.46 0L0 743.89z" fill="rgba(255, 255, 255, .025)"></path><path d="M1440 900L1163.1100000000001 900L1440 615.9100000000001z" fill="rgba(0, 0, 0, .1)"></path><path d="M1440 615.9100000000001L1163.1100000000001 900L797.7500000000001 900L1440 565.5600000000001z" fill="rgba(0, 0, 0, .075)"></path><path d="M1440 565.56L797.75 900L396.13 900L1440 386.5999999999999z" fill="rgba(0, 0, 0, .05)"></path><path d="M1440 386.6L396.1300000000001 900L116.0700000000001 900L1440 273.34000000000003z" fill="rgba(0, 0, 0, .025)"></path></g><defs><mask id="SvgjsMask1274"><rect width="1440" height="900" fill="#ffffff"></rect></mask><linearGradient x1="9.37%" y1="-15%" x2="90.63%" y2="115%" gradientUnits="userSpaceOnUse" id="SvgjsLinearGradient1275"><stop stop-color="#0e2a47" offset="0"></stop><stop stop-color="rgba(181, 64, 135, 1)" offset="1"></stop></linearGradient></defs></svg> --> -->

<!-- <?xml version="1.0" encoding="UTF-8"?> -->
<!-- <svg preserveAspectRatio="none" version="1.1" viewBox="0 0 1440 900" xmlns="http://www.w3.org/2000/svg">
<g mask="url(#a)">
<rect width="1440" height="900" fill="url(#b)"/>
<path d="M0 0L695.17 0L0 285.46z" fill="rgba(255, 255, 255, .1)"/>
<path d="m0 285.46 695.17-285.46h174.04l-869.21 330.71z" fill="rgba(255, 255, 255, .075)"/>
<path d="m0 330.71 869.21-330.71h45.34l-914.55 636.54z" fill="rgba(255, 255, 255, .05)"/>
<path d="M0 636.54L914.55 0L1143.46 0L0 743.89z" fill="rgba(255, 255, 255, .025)"/>
<path d="m1440 900h-276.89l276.89-284.09z" fill="rgba(0, 0, 0, .1)"/>
<path d="m1440 615.91-276.89 284.09h-365.36l642.25-334.44z" fill="rgba(0, 0, 0, .075)"/>
<path d="m1440 565.56-642.25 334.44h-401.62l1043.9-513.4z" fill="rgba(0, 0, 0, .05)"/>
<path d="m1440 386.6-1043.9 513.4h-280.06l1323.9-626.66z" fill="rgba(0, 0, 0, .025)"/>
</g>
<defs>
<mask id="a">
<rect width="1440" height="900" fill="#fff"/>
</mask>
<linearGradient id="b" x1="9.37%" x2="90.63%" y1="-15%" y2="115%" gradientUnits="userSpaceOnUse">
<stop stop-color="#0e2a47" offset="0"/>
<stop stop-color="rgba(181, 64, 135, 1)" offset="1"/>
</linearGradient>
</defs>
</svg>
